<svg xmlns="http://www.w3.org/2000/svg" width="96" height="96" viewBox="0 0 96 96">
  <defs>
    <style>
      .cls-1 {
        fill: #5ac3ff;
      }
      .cls-2 {
        fill: #46a2de;
      }
      .cls-3 {
        fill: #a5ff7d;
      }
    </style>
  </defs>
  <circle class="cls-1" cx="48" cy="48" r="48"/>
  <path class="cls-2" d="M71.5,46c-2.3-3.8-6.9-5.3-10.7-3-3.8,2.3-5.3,6.9-3,10.7s6.9,5.3,10.7,3C74.8,52.9,73.8,49.5,71.5,46Z"/>
  <path class="cls-2" d="M24.5,46c-2.3-3.8-6.9-5.3-10.7-3-3.8,2.3-5.3,6.9-3,10.7s6.9,5.3,10.7,3C27.8,52.9,26.8,49.5,24.5,46Z"/>
  <path class="cls-3" d="M48,30c-8.6,0-15.6,7-15.6,15.6s7,15.6,15.6,15.6,15.6-7,15.6-15.6S56.6,30,48,30Zm0,26.2c-4.9,0-8.8-4-8.8-8.8s4-8.8,8.8-8.8,8.8,4,8.8,8.8S52.9,56.2,48,56.2Z"/>
</svg>